<svg xmlns="http://www.w3.org/2000/svg" viewBox="0 0 20 20"><defs><style>.cls-1{fill:#fff;}</style></defs><title>linkedin-icon</title><g id="Layer_2" data-name="Layer 2"><g id="Layer_1-2" data-name="Layer 1"><path class="cls-1" d="M18.4,0H1.71A1.63,1.63,0,0,0,0,1.56V18.29A1.76,1.76,0,0,0,1.71,20H18.4A1.67,1.67,0,0,0,20,18.29V1.56A1.53,1.53,0,0,0,18.4,0ZM6.2,16.67H3.33V7.76H6.2ZM4.87,6.41h0A1.47,1.47,0,0,1,3.33,4.87,1.48,1.48,0,0,1,4.88,3.33,1.48,1.48,0,0,1,6.41,4.87,1.48,1.48,0,0,1,4.87,6.41ZM16.67,16.67H13.81V11.8c0-1.17-.42-2-1.45-2a1.57,1.57,0,0,0-1.47,1.06,1.93,1.93,0,0,0-.1.7v5.07H7.92V7.76h2.87V9a2.9,2.9,0,0,1,2.58-1.45c1.88,0,3.3,1.24,3.3,3.91Z"/></g></g></svg>