<?xml version="1.0" encoding="utf-8"?>
<!-- Generator: Adobe Illustrator 21.0.2, SVG Export Plug-In . SVG Version: 6.00 Build 0)  -->
<svg version="1.1" id="Layer_1" xmlns="http://www.w3.org/2000/svg" xmlns:xlink="http://www.w3.org/1999/xlink" x="0px" y="0px"
	 width="200px" height="60px" viewBox="0 0 200 60" style="enable-background:new 0 0 200 60;" xml:space="preserve">
<style type="text/css">
	.st0{fill:#FFFFFF;}
	.st1{fill:#4DDB5A;}
</style>
<g>
	<g>
		<path class="st0" d="M27.8,27c-0.3,0.4-0.5,0.7-0.8,0.8c-0.3,0.2-0.6,0.3-1.1,0.3c-0.5,0-1-0.1-1.5-0.4c-0.5-0.3-1.1-0.5-1.8-0.8
			c-0.7-0.3-1.5-0.6-2.4-0.8c-0.9-0.3-1.9-0.4-3.1-0.4c-1.9,0-3.3,0.4-4.4,1.2s-1.6,1.8-1.6,3.1c0,0.8,0.3,1.6,0.8,2.1
			c0.6,0.6,1.3,1.1,2.2,1.5c0.9,0.4,1.9,0.8,3.1,1.2c1.1,0.4,2.3,0.7,3.5,1.1c1.2,0.4,2.4,0.9,3.5,1.4c1.1,0.5,2.2,1.2,3.1,2
			c0.9,0.8,1.7,1.8,2.2,2.9c0.6,1.1,0.8,2.5,0.8,4c0,1.9-0.3,3.6-1,5.2s-1.7,2.9-3,4.1c-1.3,1.2-3,2.1-5,2.7c-1.9,0.6-4.2,1-6.7,1
			c-1.4,0-2.7-0.1-4-0.4c-1.3-0.3-2.5-0.6-3.7-1s-2.3-0.9-3.3-1.5c-1-0.6-1.9-1.2-2.7-1.9l2.2-3.6c0.3-0.4,0.6-0.8,1-1
			c0.4-0.2,0.9-0.3,1.4-0.3c0.6,0,1.1,0.2,1.7,0.5c0.5,0.3,1.1,0.7,1.8,1c0.7,0.4,1.5,0.8,2.5,1c0.9,0.3,2.1,0.5,3.6,0.5
			c1.1,0,2.1-0.1,2.9-0.4c0.8-0.3,1.5-0.6,2-1c0.5-0.4,0.9-0.9,1.1-1.5c0.3-0.6,0.4-1.2,0.4-1.8c0-0.9-0.3-1.7-0.8-2.3
			s-1.3-1.1-2.2-1.5c-0.9-0.4-1.9-0.8-3.1-1.2c-1.2-0.3-2.4-0.7-3.6-1.1c-1.2-0.4-2.4-0.9-3.6-1.4C7.1,39.7,6,39,5.1,38.2
			c-0.9-0.8-1.7-1.8-2.2-3.1s-0.8-2.7-0.8-4.4c0-1.6,0.3-3.1,1-4.6c0.6-1.4,1.6-2.7,2.8-3.8c1.2-1.1,2.8-1.9,4.7-2.6
			c1.9-0.6,4-1,6.4-1c2.7,0,5.2,0.5,7.4,1.3c2.2,0.9,4.1,2.1,5.6,3.5L27.8,27z"/>
		<path class="st0" d="M53.2,18.8c2.5,0,4.8,0.4,6.9,1.2c2.1,0.8,3.9,1.9,5.4,3.4c1.5,1.5,2.7,3.4,3.5,5.5s1.3,4.7,1.3,7.5
			c0,0.7,0,1.3-0.1,1.8c-0.1,0.5-0.2,0.8-0.3,1.1s-0.4,0.5-0.7,0.6s-0.6,0.2-1.1,0.2H43.7c0.3,4,1.4,7,3.3,8.8
			c1.9,1.9,4.4,2.8,7.5,2.8c1.5,0,2.9-0.2,4-0.5c1.1-0.3,2.1-0.8,2.9-1.2c0.8-0.4,1.6-0.8,2.2-1.2c0.6-0.3,1.2-0.5,1.8-0.5
			c0.4,0,0.7,0.1,1,0.2c0.3,0.2,0.5,0.4,0.7,0.6l2.8,3.4c-1.1,1.2-2.2,2.2-3.5,3.1c-1.3,0.8-2.7,1.5-4.1,2s-2.9,0.8-4.3,1
			c-1.5,0.2-2.9,0.3-4.3,0.3c-2.8,0-5.3-0.5-7.7-1.3c-2.4-0.9-4.4-2.2-6.1-4c-1.7-1.8-3.1-3.9-4.1-6.5c-1-2.6-1.5-5.6-1.5-9
			c0-2.6,0.4-5.2,1.3-7.5c0.9-2.3,2.1-4.4,3.7-6.1c1.6-1.7,3.6-3.1,6-4.1C47.6,19.3,50.3,18.8,53.2,18.8z M53.4,25.5
			c-2.8,0-4.9,0.8-6.5,2.3c-1.6,1.6-2.5,3.7-3,6.6h17.8c0-1.2-0.2-2.3-0.5-3.4s-0.8-2-1.5-2.9c-0.7-0.8-1.6-1.5-2.6-1.9
			C56.1,25.7,54.8,25.5,53.4,25.5z"/>
		<path class="st0" d="M77,58.4v-39h5.8c1.2,0,2,0.6,2.4,1.7l0.6,3.1c0.8-0.8,1.7-1.6,2.5-2.2c0.9-0.7,1.8-1.2,2.8-1.7
			c1-0.5,2-0.8,3.2-1.1c1.1-0.3,2.4-0.4,3.7-0.4c2.2,0,4.1,0.4,5.7,1.1c1.7,0.7,3,1.7,4.1,3.1c1.1,1.3,1.9,2.9,2.5,4.7
			c0.6,1.8,0.8,3.8,0.8,6v24.8h-9.5V33.6c0-2.4-0.6-4.2-1.7-5.5c-1.1-1.3-2.8-2-5-2c-1.7,0-3.2,0.4-4.6,1.1c-1.4,0.8-2.8,1.7-4.1,3
			v28.2L77,58.4L77,58.4z"/>
		<path class="st0" d="M143,27c-0.3,0.4-0.5,0.7-0.8,0.8c-0.3,0.2-0.6,0.3-1.1,0.3c-0.5,0-1-0.1-1.5-0.4c-0.5-0.3-1.1-0.5-1.8-0.8
			c-0.7-0.3-1.5-0.6-2.4-0.8c-0.9-0.3-1.9-0.4-3.1-0.4c-1.9,0-3.3,0.4-4.4,1.2s-1.6,1.8-1.6,3.1c0,0.8,0.3,1.6,0.8,2.1
			c0.6,0.6,1.3,1.1,2.2,1.5c0.9,0.4,1.9,0.8,3.1,1.2c1.1,0.3,2.3,0.7,3.5,1.1s2.4,0.9,3.5,1.4c1.1,0.5,2.2,1.2,3.1,2
			c0.9,0.8,1.7,1.8,2.2,2.9c0.6,1.1,0.8,2.5,0.8,4c0,1.9-0.3,3.6-1,5.2c-0.7,1.6-1.7,2.9-3,4.1c-1.3,1.2-3,2.1-5,2.7
			c-1.9,0.6-4.2,1-6.7,1c-1.4,0-2.7-0.1-4-0.4c-1.3-0.3-2.5-0.6-3.7-1c-1.2-0.4-2.3-0.9-3.3-1.5c-1-0.6-1.9-1.2-2.7-1.9l2.2-3.6
			c0.3-0.4,0.6-0.8,1-1c0.4-0.2,0.9-0.3,1.4-0.3c0.6,0,1.1,0.2,1.7,0.5c0.5,0.3,1.1,0.7,1.8,1c0.7,0.4,1.5,0.8,2.5,1
			c0.9,0.3,2.1,0.5,3.6,0.5c1.1,0,2.1-0.1,2.9-0.4c0.8-0.3,1.5-0.6,2-1c0.5-0.4,0.9-0.9,1.1-1.5c0.3-0.6,0.4-1.2,0.4-1.8
			c0-0.9-0.3-1.7-0.8-2.3s-1.3-1.1-2.2-1.5c-0.9-0.4-1.9-0.8-3.1-1.2c-1.2-0.3-2.4-0.7-3.6-1.1c-1.2-0.4-2.4-0.9-3.6-1.4
			c-1.2-0.5-2.2-1.2-3.1-2.1c-0.9-0.8-1.7-1.8-2.2-3.1c-0.6-1.2-0.8-2.7-0.8-4.4c0-1.6,0.3-3.1,1-4.6c0.6-1.4,1.6-2.7,2.8-3.8
			c1.2-1.1,2.8-1.9,4.7-2.6c1.9-0.6,4-1,6.4-1c2.7,0,5.2,0.5,7.4,1.3s4.1,2.1,5.6,3.5L143,27z"/>
		<path class="st0" d="M168.4,18.8c2.5,0,4.8,0.4,6.9,1.2c2.1,0.8,3.9,1.9,5.4,3.4c1.5,1.5,2.7,3.4,3.5,5.5c0.8,2.2,1.3,4.7,1.3,7.5
			c0,0.7,0,1.3-0.1,1.8c-0.1,0.5-0.2,0.8-0.3,1.1s-0.4,0.5-0.7,0.6s-0.6,0.2-1.1,0.2H159c0.3,4,1.4,7,3.3,8.8
			c1.9,1.9,4.4,2.8,7.5,2.8c1.5,0,2.9-0.2,4-0.5c1.1-0.3,2.1-0.8,2.9-1.2c0.8-0.4,1.6-0.8,2.2-1.2c0.6-0.3,1.2-0.5,1.8-0.5
			c0.4,0,0.7,0.1,1,0.2c0.3,0.2,0.5,0.4,0.7,0.6l2.8,3.4c-1.1,1.2-2.2,2.2-3.5,3.1c-1.3,0.8-2.7,1.5-4.1,2c-1.4,0.5-2.9,0.8-4.3,1
			c-1.5,0.2-2.9,0.3-4.3,0.3c-2.8,0-5.3-0.5-7.7-1.3c-2.4-0.9-4.4-2.2-6.1-4c-1.7-1.8-3.1-3.9-4.1-6.5c-1-2.6-1.5-5.6-1.5-9
			c0-2.6,0.4-5.2,1.3-7.5s2.1-4.4,3.7-6.1s3.6-3.1,6-4.1C162.9,19.3,165.5,18.8,168.4,18.8z M168.7,25.5c-2.8,0-4.9,0.8-6.5,2.3
			c-1.6,1.6-2.5,3.7-3,6.6H177c0-1.2-0.2-2.3-0.5-3.4s-0.8-2-1.5-2.9c-0.7-0.8-1.6-1.5-2.6-1.9C171.3,25.7,170.1,25.5,168.7,25.5z"
			/>
	</g>
	<g>
		<g>
			<path class="st0" d="M191.3,18.9v0.8h-2v5.5h-1v-5.5h-2v-0.8H191.3z"/>
			<path class="st0" d="M195.5,23c0,0.1,0.1,0.2,0.1,0.3c0-0.1,0.1-0.2,0.1-0.3c0-0.1,0.1-0.2,0.1-0.3l2-3.7c0-0.1,0.1-0.1,0.1-0.2
				c0,0,0.1,0,0.2,0h0.8v6.4h-0.9v-4.3c0-0.1,0-0.2,0-0.2c0-0.1,0-0.2,0-0.3l-2.1,3.8c-0.1,0.2-0.2,0.3-0.4,0.3h-0.1
				c-0.2,0-0.3-0.1-0.4-0.3l-2.1-3.8c0,0.1,0,0.2,0,0.3c0,0.1,0,0.2,0,0.3v4.3h-0.9v-6.3h0.8c0.1,0,0.2,0,0.2,0c0,0,0.1,0.1,0.1,0.2
				l2.1,3.7C195.4,22.8,195.4,22.9,195.5,23z"/>
		</g>
	</g>
	<g>
		<path class="st1" d="M7.9,2.7c0,0.1-0.1,0.1-0.2,0.2c0,0-0.1,0-0.2,0s-0.2,0-0.3-0.1C7.2,2.7,7.1,2.6,6.9,2.6
			C6.7,2.5,6.5,2.4,6.3,2.3C6.1,2.2,5.9,2.2,5.6,2.2c-0.3,0-0.5,0-0.7,0.1c-0.2,0-0.3,0.3-0.5,0.4C4.3,2.8,4.2,2.9,4.1,3.1
			C4.1,3.2,4,3.3,4,3.6C4,3.8,4.1,4,4.3,4.1c0.1,0.2,0.3,0.3,0.5,0.4C5,4.7,5.2,4.8,5.5,4.9S6,5,6.3,5.1c0.3,0.1,0.6,0.2,0.8,0.3
			c0.3,0.1,0.5,0.3,0.7,0.5s0.4,0.4,0.5,0.7c0.1,0.3,0.2,0.6,0.2,1S8.4,8.4,8.3,8.8C8.2,9.1,8,9.4,7.7,9.7c-0.3,0.3-0.6,0.5-1,0.6
			c-0.4,0.2-0.8,0.3-1.4,0.3c-0.3,0-0.6,0-0.9-0.1c-0.3,0-0.6-0.1-0.8-0.3C3.2,10.1,3,10,2.8,9.9C2.6,9.8,2.4,9.6,2.2,9.4l0.5-0.8
			c0,0,0.1-0.1,0.2-0.1c0,0,0.1,0,0.2,0s0.2,0,0.3,0.1s0.3,0.2,0.5,0.3C4,9,4.2,9.1,4.5,9.2C4.7,9.3,5,9.3,5.4,9.3
			c0.6,0,1-0.1,1.3-0.4C7,8.6,7.1,8.3,7.1,7.8c0-0.3-0.1-0.5-0.2-0.7C6.8,6.9,6.6,6.8,6.4,6.7C6.2,6.5,6,6.5,5.7,6.4
			C5.4,6.3,5.1,6.2,4.9,6.1C4.6,6,4.3,5.9,4.1,5.8C3.8,5.7,3.5,5.6,3.3,5.4C3.1,5.2,2.9,5,2.8,4.7c-0.1-0.3-0.2-0.6-0.2-1
			c0-0.3,0-0.7,0.2-1S3.1,2,3.4,1.8s0.6-0.5,1-0.6C4.7,1,5.1,1,5.7,1c0.6,0,1.1,0.1,1.5,0.3S8,1.7,8.4,2L7.9,2.7z"/>
		<path class="st1" d="M12.6,10.5h-1.5V1.1h1.6L12.6,10.5L12.6,10.5z"/>
		<path class="st1" d="M18,5.7l-3-4.6h1.5c0.1,0,0.2,0,0.3,0c0,0,0.1,0.1,0.1,0.2l2.3,3.6c0,0,0-0.1,0-0.2c0,0,0-0.1,0.1-0.2
			l2.2-3.3c0-0.1,0.1-0.1,0.1-0.2c0,0,0.1,0,0.2,0h1.5l-3.1,4.5l3.2,4.9h-1.5c-0.1,0-0.2,0-0.3-0.1c-0.1,0-0.1-0.1-0.2-0.2L19,6.5
			c0,0,0,0.1,0,0.2s0,0.1-0.1,0.1l-2.3,3.5c0,0.1-0.1,0.1-0.2,0.2c0,0-0.1,0.1-0.3,0.1h-1.4L18,5.7z"/>
		<path class="st1" d="M29.6,10.6c-0.8,0-1.5-0.1-2.1-0.4c-0.6-0.3-1.2-0.5-1.6-1c-0.4-0.4-0.8-0.9-1-1.5s-0.3-1.3-0.3-1.9
			c0-0.7,0.1-1.3,0.3-2c0.2-0.6,0.6-1.1,1-1.5c0.4-0.4,0.9-0.8,1.6-1C28,1.1,28.7,1,29.5,1c0.4,0,0.7,0,1.1,0.1
			c0.3,0,0.6,0.1,0.9,0.3c0.3,0.1,0.6,0.3,0.8,0.4c0.3,0.2,0.5,0.3,0.6,0.5l-0.4,0.7c-0.1,0.1-0.2,0.2-0.3,0.2c-0.1,0-0.2,0-0.3-0.1
			c-0.1-0.1-0.3-0.2-0.4-0.3s-0.3-0.2-0.6-0.3c-0.2-0.1-0.4-0.1-0.6-0.2c-0.3,0-0.5-0.1-0.8-0.1c-0.5,0-1,0.1-1.4,0.3
			c-0.4,0.2-0.8,0.4-1,0.7c-0.3,0.3-0.5,0.7-0.7,1.1c-0.2,0.4-0.2,0.9-0.2,1.4c0,0.5,0.1,1,0.3,1.5c0.2,0.5,0.4,0.8,0.7,1.1
			c0.3,0.3,0.7,0.5,1.1,0.7c0.4,0.2,0.9,0.3,1.4,0.3c0.4,0,0.8,0,1.1-0.1c0.3-0.1,0.6-0.2,0.9-0.3V7h-1.4C30.1,7,30,7,29.9,7
			c0,0-0.1-0.1-0.1-0.2V5.9h3v3.7C31.9,10.3,30.8,10.6,29.6,10.6z"/>
		<path class="st1" d="M37.2,10.5h-1.6V1.1h1.6V10.5z"/>
		<path class="st1" d="M41.9,9.2h3.9v1.3h-5.5V1.1h1.6V9.2z"/>
		<path class="st1" d="M49.7,9.2h3.9v1.3h-5.5V1.1h1.6V9.2z"/>
	</g>
</g>
</svg>
