<?xml version="1.0" encoding="utf-8"?>
<!-- Generator: Adobe Illustrator 21.1.0, SVG Export Plug-In . SVG Version: 6.00 Build 0)  -->
<!DOCTYPE svg PUBLIC "-//W3C//DTD SVG 1.1//EN" "http://www.w3.org/Graphics/SVG/1.1/DTD/svg11.dtd">
<svg version="1.1" id="Layer_1" xmlns="http://www.w3.org/2000/svg" xmlns:xlink="http://www.w3.org/1999/xlink" x="0px" y="0px"
	 viewBox="0 0 447 367.1" style="enable-background:new 0 0 447 367.1;" xml:space="preserve">
<style type="text/css">
	.st0{fill:#4DB45A;}
	.st1{fill:#4DBE5A;}
	.st2{fill:#4DAA5A;}
	.st3{fill:#4DC85A;}
	.st4{fill:#4DD25A;}
	.st5{fill:#4DDB5A;}
	.st6{fill:#FFFFFF;}
	.st7{display:none;}
	.st8{display:inline;fill:#2E2E2E;}
	.st9{font-family:'Lato-Regular';}
	.st10{font-size:40.5054px;}
	.st11{letter-spacing:1;}
</style>
<g id="Layer_1_1_">
	<g>
		<g>
			<g>
				<path class="st0" d="M258.8,113.7h3.4V26.2h-3.4c-5.4,0-9.8,4.4-9.8,9.8v68C249,109.3,253.4,113.7,258.8,113.7z"/>
			</g>
		</g>
		<g>
			<g>
				<path class="st1" d="M237.4,117.4h3.4v-95h-3.4c-5.4,0-9.8,4.4-9.8,9.8v75.4C227.6,113,232,117.4,237.4,117.4z"/>
			</g>
		</g>
		<g>
			<g>
				<path class="st2" d="M280.1,110.1h3.4V29.8h-3.4c-5.4,0-9.8,4.4-9.8,9.8v60.8C270.4,105.7,274.7,110.1,280.1,110.1z"/>
			</g>
		</g>
		<g>
			<g>
				<path class="st3" d="M216,121.1h3.4V18.7H216c-5.4,0-9.8,4.4-9.8,9.8v82.9C206.2,116.8,210.6,121.1,216,121.1z"/>
			</g>
		</g>
		<g>
			<g>
				<path class="st4" d="M194.6,124.9h3.4V15h-3.4c-5.4,0-9.8,4.4-9.8,9.8v90.4C184.9,120.5,189.2,124.9,194.6,124.9z"/>
			</g>
		</g>
		<g>
			<g>
				<path class="st5" d="M173.3,128.6h3.4V11.2h-3.4c-5.4,0-9.8,4.4-9.8,9.8v97.8C163.5,124.2,167.9,128.6,173.3,128.6z"/>
			</g>
		</g>
	</g>
	<g>
		<g>
			<path class="st6" d="M55,158.5c8.6,0,15.6,7,15.6,15.6h21.9c0-20.7-16.8-37.5-37.5-37.5s-37.5,16.8-37.5,37.5
				s16.8,37.5,37.5,37.5c8.6,0,15.6,7,15.6,15.6s-7,15.6-15.6,15.6s-15.6-7-15.6-15.6H17.5c0,20.7,16.8,37.5,37.5,37.5
				s37.5-16.8,37.5-37.5S75.6,189.7,55,189.7c-8.6,0-15.6-7-15.6-15.6S46.4,158.5,55,158.5z"/>
			<circle class="st6" cx="115.4" cy="145.9" r="10.9"/>
			<rect x="104.5" y="173" class="st6" width="21.9" height="89.7"/>
			<circle class="st6" cx="325.3" cy="145.9" r="10.9"/>
			<rect x="314.3" y="173" class="st6" width="21.9" height="89.7"/>
			<rect x="349.4" y="134.8" class="st6" width="21.9" height="128"/>
			<rect x="385.4" y="134.8" class="st6" width="21.9" height="128"/>
			<path class="st6" d="M300.8,217v-44H279v6.4c-6.8-4-14.5-6.3-22.9-6.3c-24.6,0-44.7,20-44.7,44.7c0,24.6,20.1,44.7,44.7,44.7
				c8.3,0,16.1-2.3,22.9-6.3v4c0,13.5-11.1,24.6-24.5,24.6h-16v21.9h16c25.5,0,46.4-20.9,46.4-46.5v-41.5c0-0.3,0-0.6,0-0.9
				C300.8,217.6,300.8,217.3,300.8,217z M256.1,240.7c-12.6,0-22.9-10.2-22.9-22.8s10.3-22.8,22.9-22.8c12.4,0,22.5,10,22.9,22.4
				v0.9C278.7,230.7,268.5,240.7,256.1,240.7z"/>
			<polygon class="st6" points="217.6,173 191.9,173 176.9,197.3 162,173 136.3,173 164.1,218.1 136.5,262.7 162.2,262.7 
				176.9,238.8 191.7,262.7 217.4,262.7 189.8,218.1 			"/>
		</g>
	</g>
	<g>
		<path class="st6" d="M119.6,352c0.8,0,1.5,0,2.2-0.1s1.3-0.2,1.9-0.3c0.6-0.1,1.1-0.3,1.6-0.5s1-0.4,1.5-0.7V344h-4.5
			c-0.3,0-0.5-0.1-0.6-0.2c-0.2-0.1-0.2-0.3-0.2-0.5v-2.2h8.9v11.1c-0.7,0.5-1.5,1-2.3,1.4s-1.6,0.7-2.5,1s-1.9,0.5-2.9,0.6
			s-2.1,0.2-3.3,0.2c-2.1,0-4-0.4-5.8-1.1s-3.3-1.7-4.5-3c-1.3-1.3-2.3-2.9-3-4.7c-0.7-1.8-1.1-3.8-1.1-6s0.3-4.2,1-6.1
			c0.7-1.8,1.7-3.4,3-4.7c1.3-1.3,2.8-2.3,4.7-3c1.8-0.7,3.9-1.1,6.1-1.1c1.1,0,2.2,0.1,3.2,0.3c1,0.2,1.9,0.4,2.7,0.7
			c0.8,0.3,1.6,0.7,2.3,1.2s1.4,1,2,1.5l-1,1.6c-0.2,0.4-0.5,0.5-0.9,0.5c-0.2,0-0.5-0.1-0.7-0.2c-0.3-0.2-0.7-0.4-1.1-0.7
			c-0.4-0.3-0.9-0.5-1.5-0.8s-1.3-0.5-2.1-0.6c-0.8-0.2-1.8-0.3-2.9-0.3c-1.6,0-3.1,0.3-4.4,0.8s-2.5,1.3-3.4,2.3s-1.6,2.2-2.1,3.6
			s-0.7,3-0.7,4.7c0,1.8,0.3,3.5,0.8,4.9s1.3,2.7,2.2,3.7c0.9,1,2.1,1.8,3.4,2.3S118,352,119.6,352z"/>
		<path class="st6" d="M146.3,334c1.5,0,2.9,0.2,4.1,0.7c1.2,0.5,2.2,1.2,3.1,2.1s1.5,2,1.9,3.3c0.5,1.3,0.7,2.8,0.7,4.4
			s-0.2,3.1-0.7,4.4s-1.1,2.4-1.9,3.3c-0.8,0.9-1.9,1.6-3.1,2.1c-1.2,0.5-2.6,0.7-4.1,0.7s-2.9-0.2-4.1-0.7
			c-1.2-0.5-2.2-1.2-3.1-2.1c-0.9-0.9-1.5-2-2-3.3s-0.7-2.8-0.7-4.4s0.2-3.1,0.7-4.4s1.1-2.4,2-3.3s1.9-1.6,3.1-2.1
			C143.4,334.3,144.8,334,146.3,334z M146.3,352.4c2,0,3.5-0.7,4.5-2c1-1.4,1.5-3.2,1.5-5.7c0-2.4-0.5-4.3-1.5-5.7s-2.5-2-4.5-2
			c-1,0-1.9,0.2-2.7,0.5c-0.8,0.4-1.4,0.9-1.9,1.5s-0.9,1.5-1.1,2.4c-0.2,1-0.4,2.1-0.4,3.3c0,1.2,0.1,2.3,0.4,3.3
			c0.2,1,0.6,1.8,1.1,2.4c0.5,0.7,1.1,1.2,1.9,1.5C144.3,352.2,145.2,352.4,146.3,352.4z"/>
		<path class="st6" d="M159.5,334.4h3c0.3,0,0.5,0.1,0.7,0.2s0.3,0.3,0.4,0.5l5.2,13.2c0.2,0.5,0.3,1,0.4,1.5c0.1,0.5,0.2,1,0.3,1.4
			c0.1-0.5,0.2-1,0.3-1.4s0.3-1,0.5-1.5l5.3-13.2c0.1-0.2,0.2-0.4,0.4-0.5s0.4-0.2,0.7-0.2h2.8l-8.4,20.5h-3.3L159.5,334.4z"/>
		<path class="st6" d="M192.6,334c1.2,0,2.4,0.2,3.4,0.6s1.9,1,2.7,1.8s1.3,1.7,1.8,2.9c0.4,1.1,0.6,2.4,0.6,3.9
			c0,0.6-0.1,0.9-0.2,1.1c-0.1,0.2-0.4,0.3-0.7,0.3h-13.7c0,1.3,0.2,2.4,0.5,3.4s0.8,1.8,1.3,2.4c0.6,0.6,1.2,1.1,2,1.4
			s1.7,0.5,2.6,0.5c0.9,0,1.7-0.1,2.3-0.3c0.7-0.2,1.2-0.4,1.7-0.7s0.9-0.5,1.2-0.7s0.6-0.3,0.8-0.3c0.3,0,0.5,0.1,0.7,0.3l1,1.3
			c-0.4,0.5-1,1-1.6,1.4s-1.3,0.7-2,1s-1.4,0.4-2.2,0.6c-0.8,0.1-1.5,0.2-2.2,0.2c-1.4,0-2.7-0.2-3.9-0.7s-2.2-1.2-3.1-2.1
			s-1.5-2.1-2-3.4c-0.5-1.4-0.7-2.9-0.7-4.7c0-1.4,0.2-2.8,0.7-4c0.4-1.2,1.1-2.3,1.9-3.2c0.8-0.9,1.8-1.6,3-2.1
			C189.7,334.3,191.1,334,192.6,334z M192.7,336.7c-1.7,0-3.1,0.5-4.1,1.5s-1.6,2.4-1.9,4.2h11.2c0-0.8-0.1-1.6-0.3-2.3
			c-0.2-0.7-0.6-1.3-1-1.8s-1-0.9-1.6-1.2S193.5,336.7,192.7,336.7z"/>
		<path class="st6" d="M207.8,354.9v-20.5h2.1c0.4,0,0.7,0.1,0.8,0.2s0.2,0.4,0.3,0.8l0.2,3.2c0.7-1.4,1.6-2.5,2.6-3.4
			c1-0.8,2.2-1.2,3.6-1.2c0.6,0,1.1,0.1,1.5,0.2c0.5,0.1,0.9,0.3,1.3,0.5l-0.5,2.7c-0.1,0.3-0.3,0.5-0.6,0.5c-0.2,0-0.5-0.1-0.9-0.2
			s-0.9-0.2-1.6-0.2c-1.3,0-2.3,0.4-3.1,1.1s-1.5,1.8-2.1,3.2v13.1L207.8,354.9L207.8,354.9z"/>
		<path class="st6" d="M226.3,354.9v-20.5h2.1c0.5,0,0.8,0.2,1,0.7l0.3,2.2c0.9-1,1.9-1.8,3-2.4s2.4-0.9,3.8-0.9
			c1.1,0,2.1,0.2,3,0.6s1.6,0.9,2.1,1.6c0.6,0.7,1,1.5,1.3,2.5s0.4,2,0.4,3.2V355h-3.6v-13.1c0-1.6-0.4-2.8-1.1-3.6
			c-0.7-0.9-1.8-1.3-3.3-1.3c-1.1,0-2.1,0.3-3,0.8s-1.8,1.2-2.6,2.1V355h-3.4V354.9z"/>
		<path class="st6" d="M266.1,354.9h-3.9v-29h3.9V354.9z"/>
		<path class="st6" d="M283.8,334c1.5,0,2.9,0.2,4.1,0.7s2.2,1.2,3.1,2.1s1.5,2,1.9,3.3c0.5,1.3,0.7,2.8,0.7,4.4s-0.2,3.1-0.7,4.4
			s-1.1,2.4-1.9,3.3s-1.9,1.6-3.1,2.1s-2.6,0.7-4.1,0.7s-2.9-0.2-4.1-0.7s-2.2-1.2-3.1-2.1s-1.5-2-2-3.3s-0.7-2.8-0.7-4.4
			s0.2-3.1,0.7-4.4s1.1-2.4,2-3.3s1.9-1.6,3.1-2.1C281,334.3,282.3,334,283.8,334z M283.8,352.4c2,0,3.5-0.7,4.5-2
			c1-1.4,1.5-3.2,1.5-5.7c0-2.4-0.5-4.3-1.5-5.7s-2.5-2-4.5-2c-1,0-1.9,0.2-2.7,0.5c-0.8,0.4-1.4,0.9-1.9,1.5
			c-0.5,0.7-0.9,1.5-1.1,2.4c-0.2,1-0.4,2.1-0.4,3.3c0,1.2,0.1,2.3,0.4,3.3c0.2,1,0.6,1.8,1.1,2.4c0.5,0.7,1.1,1.2,1.9,1.5
			C281.9,352.2,282.8,352.4,283.8,352.4z"/>
		<path class="st6" d="M318.6,325.9v3.2h-13.9v9.6H316v3.1h-11.3v9.9h13.9v3.2h-17.9v-29L318.6,325.9L318.6,325.9z"/>
	</g>
	<g>
		<g>
			<rect x="17.5" y="339.9" class="st6" width="74.2" height="1"/>
		</g>
		<g>
			<rect x="332.6" y="339.9" class="st6" width="74.4" height="1"/>
		</g>
	</g>
	<g>
		<path class="st6" d="M417.6,253c0-0.9,0.1-1.8,0.4-2.7c0.2-0.9,0.6-1.6,1-2.4c0.4-0.7,1-1.4,1.6-2s1.3-1.1,2-1.6
			c0.7-0.4,1.5-0.8,2.4-1c0.8-0.2,1.7-0.4,2.6-0.4s1.8,0.1,2.7,0.4c0.9,0.2,1.6,0.6,2.4,1c0.7,0.4,1.4,1,2,1.6s1.1,1.3,1.6,2
			c0.4,0.7,0.8,1.5,1,2.4s0.4,1.7,0.4,2.7c0,0.9-0.1,1.8-0.4,2.6c-0.2,0.9-0.6,1.6-1,2.4c-0.4,0.7-1,1.4-1.6,2s-1.3,1.1-2,1.6
			c-0.7,0.4-1.5,0.8-2.4,1s-1.7,0.4-2.7,0.4c-0.9,0-1.8-0.1-2.6-0.4s-1.6-0.6-2.4-1c-0.7-0.4-1.4-1-2-1.6s-1.1-1.3-1.6-2
			c-0.4-0.7-0.8-1.5-1-2.4C417.7,254.8,417.6,253.9,417.6,253z M418.9,253c0,0.8,0.1,1.6,0.3,2.3c0.2,0.7,0.5,1.4,0.9,2.1
			c0.4,0.7,0.8,1.2,1.3,1.8c0.5,0.5,1.1,1,1.7,1.4s1.3,0.7,2.1,0.9c0.7,0.2,1.5,0.3,2.3,0.3c1.2,0,2.3-0.2,3.4-0.7s2-1.1,2.7-1.9
			c0.8-0.8,1.4-1.7,1.8-2.8c0.5-1.1,0.7-2.2,0.7-3.4c0-0.8-0.1-1.6-0.3-2.3c-0.2-0.8-0.5-1.5-0.9-2.1c-0.4-0.7-0.8-1.2-1.3-1.8
			c-0.5-0.5-1.1-1-1.7-1.4s-1.3-0.7-2.1-0.9c-0.7-0.2-1.5-0.3-2.3-0.3c-1.2,0-2.3,0.2-3.4,0.7c-1,0.5-2,1.1-2.7,1.9
			c-0.8,0.8-1.4,1.7-1.8,2.8C419.1,250.6,418.9,251.8,418.9,253z M425.6,254.2v4.8h-2.1v-12.2h3.9c1.6,0,2.7,0.3,3.5,0.9
			c0.8,0.6,1.1,1.4,1.1,2.5c0,0.9-0.2,1.6-0.7,2.2c-0.5,0.6-1.2,1-2.2,1.2c0.2,0.1,0.3,0.2,0.4,0.3s0.2,0.3,0.3,0.5l3.1,4.6h-2
			c-0.3,0-0.5-0.1-0.7-0.3l-2.7-4.1c-0.1-0.1-0.2-0.2-0.3-0.3c-0.1-0.1-0.3-0.1-0.5-0.1H425.6z M425.6,252.7h1.6
			c0.5,0,0.9,0,1.3-0.1s0.6-0.2,0.8-0.4c0.2-0.2,0.4-0.4,0.5-0.7s0.1-0.6,0.1-0.9c0-0.3,0-0.6-0.1-0.9c-0.1-0.3-0.2-0.5-0.4-0.6
			c-0.2-0.2-0.5-0.3-0.8-0.4c-0.3-0.1-0.7-0.1-1.2-0.1h-1.8V252.7z"/>
	</g>
</g>
<g id="Layer_2" class="st7">
	<text transform="matrix(1 0 0 1 102.5585 354.8792)" class="st8 st9 st10 st11">Govern IoE</text>
</g>
</svg>
