<svg xmlns="http://www.w3.org/2000/svg" viewBox="0 0 24.58 20"><defs><style>.cls-1{fill:#fff;}</style></defs><title>twitter-icon</title><g id="Layer_2" data-name="Layer 2"><g id="Layer_1-2" data-name="Layer 1"><path class="cls-1" d="M24.58,2.37a10.19,10.19,0,0,1-2.9.8A5.06,5.06,0,0,0,23.9.38,10,10,0,0,1,20.7,1.6,5,5,0,0,0,12,5,4.94,4.94,0,0,0,12.1,6.2,14.29,14.29,0,0,1,1.71.92,5.05,5.05,0,0,0,3.28,7.66,4.93,4.93,0,0,1,1,7v.06A5,5,0,0,0,5,12a5.08,5.08,0,0,1-1.33.18,4.76,4.76,0,0,1-.95-.09,5.05,5.05,0,0,0,4.71,3.51A10.11,10.11,0,0,1,1.2,17.79,10.22,10.22,0,0,1,0,17.72,14.09,14.09,0,0,0,7.72,20,14.26,14.26,0,0,0,22.08,5.64c0-.22,0-.44,0-.65A10.26,10.26,0,0,0,24.58,2.37Z"/></g></g></svg>