<svg 
 xmlns="http://www.w3.org/2000/svg"
 xmlns:xlink="http://www.w3.org/1999/xlink"
 width="224px" height="224px">
<path fill-rule="evenodd"  fill="rgb(92, 196, 104)"
 d="M112.000,-0.000 C173.856,-0.000 224.000,50.144 224.000,112.000 C224.000,173.856 173.856,224.000 112.000,224.000 C50.144,224.000 -0.000,173.856 -0.000,112.000 C-0.000,50.144 50.144,-0.000 112.000,-0.000 Z"/>
<path fill-rule="evenodd"  fill="rgb(255, 255, 255)"
 d="M112.500,90.857 C124.455,90.857 134.143,100.545 134.143,112.500 C134.143,124.455 124.455,134.143 112.500,134.143 C100.545,134.143 90.857,124.455 90.857,112.500 C90.857,100.545 100.545,90.857 112.500,90.857 ZM102.881,62.000 L100.588,74.625 C98.360,75.326 96.205,76.228 94.163,77.293 L83.568,70.003 L69.966,83.606 L77.293,94.163 C76.222,96.212 75.326,98.354 74.625,100.588 L62.000,102.881 L62.000,122.119 L74.625,124.412 C75.326,126.653 76.260,128.788 77.330,130.837 L69.966,141.394 L83.568,154.997 L94.126,147.707 C96.173,148.778 98.347,149.674 100.588,150.375 L102.881,163.000 L122.119,163.000 L124.412,150.375 C126.646,149.674 128.788,148.778 130.837,147.707 L141.394,154.997 L154.997,141.394 L147.670,130.837 C148.735,128.801 149.636,126.672 150.338,124.448 L163.000,122.119 L163.000,102.881 L150.338,100.588 C149.642,98.366 148.765,96.236 147.707,94.201 L154.997,83.606 L141.394,70.003 L130.837,77.293 C128.788,76.222 126.646,75.326 124.412,74.625 L122.119,62.000 L102.881,62.000 Z"/>
</svg>