<svg 
 xmlns="http://www.w3.org/2000/svg"
 xmlns:xlink="http://www.w3.org/1999/xlink"
 width="224px" height="224px">
<path fill-rule="evenodd"  fill="rgb(92, 196, 104)"
 d="M112.000,-0.000 C173.856,-0.000 224.000,50.144 224.000,112.000 C224.000,173.856 173.856,224.000 112.000,224.000 C50.144,224.000 -0.000,173.856 -0.000,112.000 C-0.000,50.144 50.144,-0.000 112.000,-0.000 Z"/>
<path fill-rule="evenodd"  fill="rgb(255, 255, 255)"
 d="M163.180,115.471 L163.103,115.574 C163.060,115.639 163.017,115.688 162.974,115.742 C162.946,115.774 162.919,115.808 162.886,115.840 L162.880,115.856 L162.740,116.002 L148.918,129.829 C148.097,130.644 147.010,131.095 145.853,131.095 C144.695,131.095 143.603,130.650 142.788,129.829 C141.097,128.138 141.097,125.388 142.788,123.703 L149.217,117.274 L128.558,117.274 C126.166,117.274 124.227,115.329 124.227,112.943 C124.227,110.557 126.166,108.612 128.558,108.612 L149.217,108.612 L142.788,102.183 C141.972,101.362 141.521,100.276 141.521,99.118 C141.521,97.955 141.967,96.867 142.788,96.052 C143.608,95.238 144.695,94.786 145.853,94.786 C147.005,94.786 148.091,95.232 148.912,96.052 L162.734,109.873 C162.832,109.964 162.924,110.069 163.006,110.172 C163.006,110.166 163.006,110.166 163.006,110.166 C163.006,110.166 163.038,110.215 163.077,110.258 C163.103,110.297 163.142,110.346 163.174,110.394 C163.718,111.139 164.006,112.014 164.006,112.932 C164.006,113.856 163.718,114.725 163.180,115.471 ZM126.830,84.477 C125.672,84.477 124.585,84.032 123.765,83.211 L117.335,76.782 L117.335,97.439 C117.335,99.824 115.388,101.770 113.002,101.770 C110.617,101.770 108.671,99.829 108.671,97.439 L108.671,76.782 L102.241,83.211 C101.420,84.026 100.334,84.477 99.176,84.477 C98.018,84.477 96.932,84.032 96.111,83.211 C94.420,81.520 94.420,78.775 96.111,77.086 L109.937,63.266 C110.030,63.168 110.133,63.081 110.236,62.994 C110.231,62.994 110.253,62.978 110.324,62.923 C110.361,62.896 110.410,62.858 110.459,62.826 C111.205,62.282 112.078,61.994 112.998,61.994 C113.922,61.994 114.797,62.282 115.542,62.821 L115.639,62.891 C115.704,62.935 115.753,62.978 115.807,63.021 C115.841,63.049 115.873,63.075 115.905,63.108 L115.916,63.114 L116.063,63.260 L129.884,77.086 C130.705,77.902 131.167,78.988 131.167,80.146 C131.167,81.303 130.716,82.390 129.895,83.211 C129.074,84.026 127.987,84.477 126.830,84.477 ZM76.783,108.607 L97.442,108.607 C99.829,108.607 101.774,110.546 101.785,112.943 C101.785,115.329 99.840,117.274 97.454,117.274 L76.794,117.274 L83.218,123.703 C84.039,124.518 84.490,125.606 84.490,126.764 C84.490,127.921 84.039,129.008 83.218,129.829 C82.397,130.644 81.311,131.095 80.153,131.095 C78.996,131.095 77.909,130.650 77.088,129.829 L63.266,116.002 C63.169,115.911 63.082,115.808 62.995,115.703 C62.995,115.703 62.957,115.660 62.924,115.617 C62.897,115.579 62.858,115.535 62.826,115.481 C62.282,114.742 61.994,113.861 61.994,112.943 C61.994,112.019 62.282,111.144 62.821,110.400 L62.892,110.302 C62.935,110.237 62.978,110.183 63.023,110.134 C63.049,110.106 63.077,110.074 63.109,110.035 L63.120,110.020 L77.082,96.057 C77.903,95.238 78.990,94.786 80.148,94.786 C81.305,94.786 82.392,95.238 83.213,96.057 C84.903,97.748 84.903,100.493 83.213,102.183 L76.783,108.607 ZM105.677,112.938 C105.677,103.178 120.324,103.178 120.324,112.938 C120.324,122.699 105.677,122.699 105.677,112.938 ZM99.171,141.512 C100.328,141.512 101.415,141.963 102.236,142.778 L108.665,149.209 L108.665,128.552 C108.665,126.166 110.612,124.221 112.998,124.221 C115.383,124.221 117.329,126.166 117.329,128.552 L117.329,149.209 L123.759,142.778 C124.580,141.963 125.667,141.507 126.824,141.507 C127.982,141.507 129.074,141.963 129.889,142.778 C131.574,144.469 131.574,147.219 129.878,148.915 L116.052,162.735 C115.960,162.832 115.862,162.925 115.753,163.006 C115.753,163.002 115.736,163.023 115.667,163.077 C115.628,163.105 115.579,163.142 115.530,163.176 C114.786,163.718 113.911,164.006 112.993,164.006 L112.987,164.006 C112.069,164.006 111.193,163.718 110.449,163.180 L110.350,163.105 C110.285,163.056 110.231,163.017 110.182,162.974 C110.155,162.946 110.122,162.920 110.085,162.888 L110.073,162.882 L96.105,148.915 C95.290,148.094 94.839,147.002 94.839,145.849 C94.839,144.691 95.284,143.605 96.105,142.784 C96.926,141.963 98.013,141.512 99.171,141.512 Z"/>
</svg>