<svg 
 xmlns="http://www.w3.org/2000/svg"
 xmlns:xlink="http://www.w3.org/1999/xlink"
 width="224px" height="224px">
<path fill-rule="evenodd"  fill="rgb(92, 196, 104)"
 d="M112.000,-0.000 C173.856,-0.000 224.000,50.144 224.000,112.000 C224.000,173.856 173.856,224.000 112.000,224.000 C50.144,224.000 -0.000,173.856 -0.000,112.000 C-0.000,50.144 50.144,-0.000 112.000,-0.000 Z"/>
<path fill-rule="evenodd"  fill="rgb(255, 255, 255)"
 d="M115.996,60.008 C85.620,60.008 61.008,80.008 61.008,104.689 C61.008,118.791 69.066,131.347 81.628,139.539 L81.628,169.990 L115.996,149.370 C146.367,149.370 170.990,129.363 170.990,104.689 C170.990,80.008 146.367,60.008 115.996,60.008 ZM110.683,129.387 L122.058,129.387 L122.058,118.011 L110.683,118.011 L110.683,129.387 ZM110.683,112.325 L122.058,112.325 L122.058,78.201 L110.683,78.201 L110.683,112.325 Z"/>
</svg>