<svg 
 xmlns="http://www.w3.org/2000/svg"
 xmlns:xlink="http://www.w3.org/1999/xlink"
 width="224px" height="224px">
<path fill-rule="evenodd"  fill="rgb(92, 196, 104)"
 d="M112.000,-0.000 C173.856,-0.000 224.000,50.144 224.000,112.000 C224.000,173.856 173.856,224.000 112.000,224.000 C50.144,224.000 -0.000,173.856 -0.000,112.000 C-0.000,50.144 50.144,-0.000 112.000,-0.000 Z"/>
<path fill-rule="evenodd"  fill="rgb(255, 255, 255)"
 d="M109.124,80.578 L100.614,67.991 L57.000,67.991 L57.000,157.003 L168.000,157.003 L168.000,80.578 L109.124,80.578 ZM103.047,112.776 L85.629,119.424 L103.047,126.320 L103.047,133.331 L78.078,122.495 L78.078,116.499 L103.047,105.714 L103.047,112.776 ZM110.499,138.093 L105.360,138.093 L114.380,100.503 L119.617,100.503 L110.499,138.093 ZM146.922,122.495 L121.929,133.361 L121.929,126.344 L139.371,119.500 L121.929,112.731 L121.929,105.759 L146.922,116.545 L146.922,122.495 Z"/>
</svg>