<svg 
 xmlns="http://www.w3.org/2000/svg"
 xmlns:xlink="http://www.w3.org/1999/xlink"
 width="224px" height="224px">
<path fill-rule="evenodd"  fill="rgb(92, 196, 104)"
 d="M112.000,-0.000 C173.856,-0.000 224.000,50.144 224.000,112.000 C224.000,173.856 173.856,224.000 112.000,224.000 C50.144,224.000 -0.000,173.856 -0.000,112.000 C-0.000,50.144 50.144,-0.000 112.000,-0.000 Z"/>
<path fill-rule="evenodd"  fill="rgb(255, 255, 255)"
 d="M130.966,104.402 L93.449,104.402 L93.449,91.368 C93.449,81.061 101.868,72.680 112.215,72.680 C122.551,72.680 130.966,81.061 130.966,91.368 L130.966,104.402 ZM119.148,132.654 L119.148,144.198 C119.148,147.198 116.708,149.639 113.680,149.639 C110.653,149.639 108.213,147.209 108.213,144.198 L108.213,132.654 C106.311,131.082 105.068,128.733 105.068,126.081 C105.068,121.347 108.918,117.512 113.680,117.512 C118.438,117.512 122.287,121.347 122.287,126.081 C122.287,128.742 121.045,131.082 119.148,132.654 ZM141.686,104.402 L141.686,91.368 C141.686,75.180 128.465,62.000 112.209,62.000 C95.945,62.000 82.732,75.180 82.732,91.368 L82.732,104.402 L77.006,104.402 L77.006,159.000 L147.991,159.000 L147.991,104.402 L141.686,104.402 Z"/>
</svg>