<svg 
 xmlns="http://www.w3.org/2000/svg"
 xmlns:xlink="http://www.w3.org/1999/xlink"
 width="224px" height="224px">
<path fill-rule="evenodd"  fill="rgb(92, 196, 104)"
 d="M112.000,-0.000 C173.856,-0.000 224.000,50.144 224.000,112.000 C224.000,173.856 173.856,224.000 112.000,224.000 C50.144,224.000 -0.000,173.856 -0.000,112.000 C-0.000,50.144 50.144,-0.000 112.000,-0.000 Z"/>
<path fill-rule="evenodd"  fill="rgb(255, 255, 255)"
 d="M136.843,135.725 C136.256,136.117 135.591,136.304 134.933,136.304 C133.812,136.304 132.711,135.759 132.045,134.752 C130.989,133.154 131.423,131.001 133.017,129.942 C143.699,122.836 150.077,110.937 150.077,98.112 C150.077,77.063 132.996,59.938 112.000,59.938 C91.004,59.938 73.923,77.063 73.923,98.112 C73.923,110.937 80.301,122.836 90.983,129.942 C92.577,131.001 93.011,133.156 91.955,134.752 C90.898,136.349 88.750,136.787 87.157,135.725 C74.535,127.331 67.000,113.269 67.000,98.112 C67.000,73.235 87.188,52.997 112.000,52.997 C136.812,52.997 157.000,73.235 157.000,98.112 C157.000,113.269 149.465,127.331 136.843,135.725 ZM95.163,115.555 C96.538,116.889 96.573,119.085 95.243,120.463 C93.914,121.841 91.724,121.878 90.349,120.544 C84.222,114.599 80.846,106.632 80.846,98.112 C80.846,80.891 94.821,66.879 112.000,66.879 C129.179,66.879 143.154,80.891 143.154,98.112 C143.154,106.632 139.780,114.599 133.651,120.546 C132.978,121.198 132.112,121.522 131.245,121.522 C130.339,121.522 129.435,121.168 128.757,120.464 C127.427,119.085 127.462,116.889 128.837,115.555 C133.606,110.930 136.231,104.735 136.231,98.112 C136.231,84.718 125.360,73.819 112.000,73.819 C98.640,73.819 87.769,84.718 87.769,98.112 C87.769,104.735 90.394,110.930 95.163,115.555 ZM105.391,110.307 C101.084,107.951 98.154,103.367 98.154,98.112 C98.154,90.458 104.365,84.230 112.000,84.230 C119.635,84.230 125.846,90.458 125.846,98.112 C125.846,103.367 122.916,107.951 118.609,110.307 L132.665,166.678 C133.129,168.537 132.002,170.422 130.148,170.888 C129.867,170.959 129.585,170.993 129.306,170.993 C127.756,170.993 126.345,169.939 125.951,168.362 L124.876,164.050 L99.127,164.050 L98.051,168.362 C97.589,170.222 95.710,171.353 93.853,170.887 C91.998,170.422 90.871,168.538 91.335,166.678 L105.391,110.307 ZM118.923,98.112 C118.923,94.285 115.817,91.171 112.000,91.171 C108.183,91.171 105.077,94.285 105.077,98.112 C105.077,101.939 108.183,105.053 112.000,105.053 C115.817,105.053 118.923,101.939 118.923,98.112 ZM107.780,129.345 L116.220,129.345 L112.000,112.421 L107.780,129.345 ZM117.951,136.286 L106.049,136.286 L104.318,143.227 L119.682,143.227 L117.951,136.286 ZM123.143,157.108 L121.413,150.168 L102.587,150.168 L100.857,157.108 L123.143,157.108 Z"/>
</svg>